<?xml version="1.0" encoding="utf-8"?>
<!-- Generator: Adobe Illustrator 23.0.4, SVG Export Plug-In . SVG Version: 6.00 Build 0)  -->
<svg version="1.1" id="Layer_1" xmlns="http://www.w3.org/2000/svg" xmlns:xlink="http://www.w3.org/1999/xlink" x="0px" y="0px"
	 viewBox="0 0 381.1 381.1" style="enable-background:new 0 0 381.1 381.1;" xml:space="preserve">
<style type="text/css">
	.st0{fill:#333;}
</style>
<g>
	<path class="st0" d="M276,0H105.1C47.2,0,0,47.2,0,105.1V276C0,334,47.2,381.1,105.1,381.1H276c58.1,0,105.1-47.2,105.1-105.1
		V105.1C381.1,47.2,334,0,276,0z M347.4,276c0,39.3-32,71.4-71.4,71.4H105.1c-39.3,0-71.3-32-71.3-71.4V105.1
		c0-39.3,32-71.4,71.3-71.4H276c39.3,0,71.4,32,71.4,71.4L347.4,276L347.4,276z"/>
	<path class="st0" d="M190.6,92.4c-54.2,0-98.3,44-98.3,98.2s44,98.2,98.2,98.2s98.2-44,98.2-98.2
		C288.8,136.4,244.8,92.4,190.6,92.4z M190.6,255c-35.4,0-64.3-28.9-64.3-64.3s28.9-64.3,64.3-64.3s64.3,28.9,64.3,64.3
		S226.1,255,190.6,255z"/>
	<path class="st0" d="M292.9,63.7c-6.6,0-13,2.7-17.5,7.2c-4.7,4.5-7.2,11-7.2,17.5c0,6.6,2.7,13,7.2,17.5c4.5,4.5,11,7.2,17.5,7.2
		c6.6,0,13-2.7,17.5-7.2c4.7-4.7,7.2-11,7.2-17.5s-2.7-13-7.2-17.5C305.8,66.3,299.5,63.7,292.9,63.7z"/>
</g>
</svg>
